# File created by Blade
# Date/Time:  Wed Apr 08 16:19:59 2015
# Frame Rate: 120.000 fps
#------------------------------------------------------
:FULLY-SPECIFIED
:DEGREES
1699
root -19.090568 30.002436 0.930355 373.898261 -61.492560 -446.656434
Spine -67.251608 -23.741818 -2.459312
Head -90.764299 -8.617766 9.034472
LeftShoulder -9.030308 -0.894533 31.553527
LeftArm 193.286094 -77.021065 -142.910487
LeftForeArm -31.264094 -0.000000 -8.788442
LeftHand 16.360301 -0.000000 110.447458
LeftHandThumb1 -26.253704 0.000000 33.147579
RightShoulder -21.386180 45.181597 -55.710415
RightArm 28.643661 52.395365 -7.794142
RightForeArm 38.283329 -0.000000 -5.266447
RightHand 21.956582 0.000000 -100.399773
RightHandThumb1 -24.326973 -0.000000 -32.862282
LeftUpLeg 18.832375 -11.111537 24.054725
LeftLeg 32.218549 -0.000000 -0.000000
LeftFoot 7.116714 -7.680319 -14.439625
LeftToeBase -41.666476 -0.000000 0.000000
RightUpLeg -86.650655 -50.046244 -16.695238
RightLeg 8.347070 -0.000000 -0.000000
RightFoot 42.192904 -17.721170 -2.490018
RightToeBase 30.165379 -0.000000 -0.000000
1700
root -19.086016 30.008276 0.928945 374.086428 -61.419925 -446.869198
Spine -67.263017 -23.758951 -2.537496
Head -90.764722 -8.663998 9.056631
LeftShoulder -8.999027 -0.876736 31.496469
LeftArm 192.428123 -76.967487 -141.901116
LeftForeArm -31.336833 -0.000000 -8.822557
LeftHand 16.379529 0.000000 110.455740
LeftHandThumb1 -26.253704 0.000000 33.147579
RightShoulder -21.294133 45.172694 -55.651814
RightArm 28.536175 52.373075 -7.877130
RightForeArm 38.156815 -0.000000 -5.184581
RightHand 21.957852 -0.000000 -100.397330
RightHandThumb1 -24.326973 -0.000000 -32.862282
LeftUpLeg 18.841803 -11.236862 24.112294
LeftLeg 32.195442 -0.000000 -0.000000
LeftFoot 7.068244 -7.584893 -14.447239
LeftToeBase -41.634279 -0.000000 0.000000
RightUpLeg -86.553667 -50.123986 -16.895600
RightLeg 8.341175 -0.000000 -0.000000
RightFoot 42.140867 -17.686844 -2.460532
RightToeBase 30.274854 -0.000000 -0.000000
1701
root -19.080000 30.015003 0.927693 374.302523 -61.345105 -447.110000
Spine -67.287268 -23.778538 -2.607040
Head -90.751644 -8.704176 9.039079
LeftShoulder -8.998808 -0.795408 31.437107
LeftArm 191.393837 -76.679421 -140.749039
LeftForeArm -31.177528 -0.000000 -8.755626
LeftHand 16.286226 -0.000000 110.546236
LeftHandThumb1 -26.253704 0.000000 33.147579
RightShoulder -21.189194 45.142683 -55.559881
RightArm 28.482200 52.402451 -7.929169
RightForeArm 38.004689 -0.000000 -5.131073
RightHand 21.945207 -0.000000 -100.377646
RightHandThumb1 -24.326973 -0.000000 -32.862282
LeftUpLeg 18.849182 -11.342899 24.189607
LeftLeg 32.167506 -0.000000 -0.000000
LeftFoot 7.021397 -7.481366 -14.452792
LeftToeBase -41.570761 -0.000000 0.000000
RightUpLeg -86.453968 -50.208748 -17.075342
RightLeg 8.316400 -0.000000 -0.000000
RightFoot 42.152485 -17.610550 -2.530280
RightToeBase 30.125927 -0.000000 -0.000000
1702
root -19.072241 30.021497 0.927139 374.530956 -61.266043 -447.333676
Spine -67.335656 -23.790520 -2.686629
Head -90.729969 -8.748867 8.993171
LeftShoulder -8.997918 -0.735272 31.380291
LeftArm 190.324993 -76.390908 -139.598717
LeftForeArm -31.029103 0.000000 -8.655565
LeftHand 16.254732 -0.000000 110.674611
LeftHandThumb1 -26.253704 0.000000 33.147579
RightShoulder -21.339214 45.112099 -55.618510
RightArm 28.920827 52.712762 -7.346846
RightForeArm 37.427328 -0.000000 -4.925294
RightHand 21.770875 -0.000000 -100.433859
RightHandThumb1 -24.326973 -0.000000 -32.862282
LeftUpLeg 18.823974 -11.445844 24.256712
LeftLeg 32.144106 -0.000000 -0.000000
LeftFoot 6.981807 -7.351468 -14.399049
LeftToeBase -41.551436 -0.000000 0.000000
RightUpLeg -86.404267 -50.312363 -17.206713
RightLeg 8.283920 -0.000000 -0.000000
RightFoot 42.108892 -17.604997 -2.555356
RightToeBase 30.212825 -0.000000 -0.000000
1703
root -19.066979 30.027345 0.926948 374.758046 -61.196492 -447.582120
Spine -67.368392 -23.806250 -2.742753
Head -90.734719 -8.794538 8.857016
LeftShoulder -9.013770 -0.685169 31.349313
LeftArm 189.271917 -76.161953 -138.465841
LeftForeArm -30.904566 -0.000000 -8.593762
LeftHand 16.151217 0.000000 110.841643
LeftHandThumb1 -26.253704 0.000000 33.147579
RightShoulder -21.380426 45.167171 -55.630413
RightArm 29.130817 52.657334 -7.177964
RightForeArm 37.249843 -0.000000 -5.019350
RightHand 21.739324 -0.000000 -100.390580
RightHandThumb1 -24.326973 -0.000000 -32.862282
LeftUpLeg 18.825145 -11.565833 24.319137
LeftLeg 32.129301 -0.000000 -0.000000
LeftFoot 6.925230 -7.223011 -14.372783
LeftToeBase -41.534303 -0.000000 0.000000
RightUpLeg -86.306527 -50.396436 -17.385117
RightLeg 8.266449 -0.000000 -0.000000
RightFoot 42.076436 -17.624601 -2.656731
RightToeBase 30.242888 -0.000000 -0.000000
1704
root -19.060168 30.031166 0.924428 374.990977 -61.124835 -447.810008
Spine -67.447598 -23.863254 -2.828913
Head -90.738408 -8.795957 8.742384
LeftShoulder -8.958992 -0.568068 31.342099
LeftArm 188.650652 -76.144285 -137.659601
LeftForeArm -31.033897 -0.000000 -8.686406
LeftHand 16.147895 -0.000000 110.975023
LeftHandThumb1 -26.253704 0.000000 33.147579
RightShoulder -21.308056 45.188965 -55.506758
RightArm 29.228757 52.510636 -7.202152
RightForeArm 37.239176 -0.000000 -5.217845
RightHand 21.829710 -0.000000 -100.292245
RightHandThumb1 -24.326973 -0.000000 -32.862282
LeftUpLeg 18.790200 -11.684602 24.377420
LeftLeg 32.128828 -0.000000 -0.000000
LeftFoot 6.867724 -7.091971 -14.348195
LeftToeBase -41.460900 -0.000000 0.000000
RightUpLeg -86.195322 -50.489118 -17.597790
RightLeg 8.246263 -0.000000 -0.000000
RightFoot 42.014492 -17.689310 -2.684065
RightToeBase 30.226111 -0.000000 -0.000000
1705
root -19.055167 30.035695 0.924720 375.238560 -61.053202 -448.051122
Spine -67.492182 -23.862022 -2.894395
Head -90.782174 -8.832903 8.752083
LeftShoulder -8.976222 -0.456943 31.291922
LeftArm 187.872930 -75.989495 -136.777886
LeftForeArm -31.040169 -0.000000 -8.691118
LeftHand 16.055065 -0.000000 111.073723
LeftHandThumb1 -26.253704 0.000000 33.147579
RightShoulder -21.346241 45.201652 -55.561166
RightArm 29.252361 52.277393 -7.263642
RightForeArm 37.339669 -0.000000 -5.422877
RightHand 21.903541 -0.000000 -100.214582
RightHandThumb1 -24.326973 -0.000000 -32.862282
LeftUpLeg 18.766517 -11.804084 24.432641
LeftLeg 32.110687 -0.000000 -0.000000
LeftFoot 6.830508 -6.931848 -14.308413
LeftToeBase -41.595278 -0.000000 0.000000
RightUpLeg -86.160000 -50.592205 -17.708743
RightLeg 8.226664 -0.000000 -0.000000
RightFoot 41.983855 -17.662769 -2.773257
RightToeBase 30.221717 -0.000000 -0.000000
1706
root -19.050567 30.039787 0.923875 375.504185 -60.989786 -448.313717
Spine -67.543109 -23.862464 -2.921277
Head -90.830436 -8.860612 8.772858
LeftShoulder -9.048152 -0.343969 31.235316
LeftArm 186.946596 -75.802424 -135.736176
LeftForeArm -31.094326 -0.000000 -8.689720
LeftHand 16.049785 -0.000000 111.137750
LeftHandThumb1 -26.253704 0.000000 33.147579
RightShoulder -21.468308 45.135343 -55.579698
RightArm 29.627699 52.394619 -6.894218
RightForeArm 37.153618 0.000000 -5.501250
RightHand 21.910038 0.000000 -100.186482
RightHandThumb1 -24.326973 -0.000000 -32.862282
LeftUpLeg 18.755048 -11.927701 24.491282
LeftLeg 32.088131 -0.000000 -0.000000
LeftFoot 6.765874 -6.793673 -14.279470
LeftToeBase -41.562162 -0.000000 0.000000
RightUpLeg -86.115836 -50.684052 -17.825978
RightLeg 8.219219 -0.000000 -0.000000
RightFoot 41.946776 -17.562278 -2.884391
RightToeBase 30.220562 -0.000000 -0.000000
1707
root -19.047167 30.043770 0.923158 375.754410 -60.935567 -448.554111
Spine -67.606435 -23.860503 -2.964721
Head -90.833095 -8.836821 8.764642
LeftShoulder -8.963017 -0.210704 31.210015
LeftArm 186.922035 -76.116899 -135.505047
LeftForeArm -31.554467 -0.000000 -8.946315
LeftHand 16.079715 -0.000000 111.106457
LeftHandThumb1 -26.253704 0.000000 33.147579
RightShoulder -21.416335 45.101567 -55.520199
RightArm 29.663044 52.306616 -6.947435
RightForeArm 37.184903 -0.000000 -5.650190
RightHand 21.956883 -0.000000 -100.108692
RightHandThumb1 -24.326973 -0.000000 -32.862282
LeftUpLeg 18.758233 -12.039079 24.539657
LeftLeg 32.040414 -0.000000 -0.000000
LeftFoot 6.699581 -6.649685 -14.248806
LeftToeBase -41.581836 -0.000000 0.000000
RightUpLeg -86.107209 -50.779736 -17.926086
RightLeg 8.230064 -0.000000 -0.000000
RightFoot 41.863972 -17.614705 -2.810762
RightToeBase 30.274681 -0.000000 -0.000000
1708
root -19.044965 30.048753 0.924957 375.970231 -60.891197 -448.772637
Spine -67.655834 -23.854822 -3.016216
Head -90.871115 -8.839319 8.821626
LeftShoulder -8.893008 -0.154569 31.194252
LeftArm 186.606105 -76.424285 -134.985335
LeftForeArm -32.004618 0.000000 -9.190510
LeftHand 16.199929 -0.000000 111.076626
LeftHandThumb1 -26.253704 0.000000 33.147579
RightShoulder -21.410352 45.141406 -55.536606
RightArm 29.683181 52.179728 -6.913104
RightForeArm 37.127074 -0.000000 -5.682652
RightHand 21.969982 -0.000000 -100.065170
RightHandThumb1 -24.326973 -0.000000 -32.862282
LeftUpLeg 18.791424 -12.145527 24.572213
LeftLeg 31.979329 -0.000000 -0.000000
LeftFoot 6.633642 -6.523875 -14.238851
LeftToeBase -41.557074 -0.000000 0.000000
RightUpLeg -86.179228 -50.872799 -17.928744
RightLeg 8.258499 -0.000000 -0.000000
RightFoot 41.840398 -17.547224 -2.841549
RightToeBase 30.278048 -0.000000 -0.000000
1709
root -19.046193 30.054109 0.925172 376.191628 -60.875577 -448.978761
Spine -67.760198 -23.812590 -3.069859
Head -90.851926 -8.885378 8.835416
LeftShoulder -8.765057 -0.027511 31.183786
LeftArm 186.380485 -76.555608 -134.632903
LeftForeArm -32.270321 -0.000000 -9.309300
LeftHand 16.237542 -0.000000 111.010447
LeftHandThumb1 -26.253704 0.000000 33.147579
RightShoulder -21.202418 45.139172 -55.434807
RightArm 29.487248 52.012504 -7.158131
RightForeArm 37.163275 -0.000000 -5.731872
RightHand 21.994625 0.000000 -100.047175
RightHandThumb1 -24.326973 -0.000000 -32.862282
LeftUpLeg 18.817836 -12.198091 24.614487
LeftLeg 31.923728 -0.000000 -0.000000
LeftFoot 6.559880 -6.433101 -14.219910
LeftToeBase -41.486046 -0.000000 0.000000
RightUpLeg -86.235597 -50.942478 -18.006086
RightLeg 8.321232 -0.000000 -0.000000
RightFoot 41.852010 -17.537941 -2.829113
RightToeBase 30.177558 -0.000000 -0.000000
1710
root -19.046842 30.060058 0.924852 376.399046 -60.858179 -449.214772
Spine -67.785937 -23.770078 -3.143820
Head -90.883401 -8.917998 8.813117
LeftShoulder -8.704677 -0.004798 31.176444
LeftArm 185.631990 -76.469621 -133.796080
LeftForeArm -32.281299 -0.000000 -9.306014
LeftHand 16.196011 -0.000000 111.090946
LeftHandThumb1 -26.253704 0.000000 33.147579
RightShoulder -21.087642 45.086504 -55.341869
RightArm 29.407895 51.914797 -7.305273
RightForeArm 37.190573 0.000000 -5.812242
RightHand 22.028280 -0.000000 -99.992005
RightHandThumb1 -24.326973 -0.000000 -32.862282
LeftUpLeg 18.879739 -12.246708 24.678198
LeftLeg 31.872628 -0.000000 -0.000000
LeftFoot 6.495258 -6.359935 -14.217275
LeftToeBase -41.351416 -0.000000 0.000000
RightUpLeg -86.257945 -51.000532 -18.067716
RightLeg 8.378013 -0.000000 -0.000000
RightFoot 41.848135 -17.529784 -2.840630
RightToeBase 30.224390 -0.000000 -0.000000
1711
root -19.043084 30.065342 0.925022 376.622253 -60.841560 -449.445652
Spine -67.838997 -23.727635 -3.186133
Head -90.971687 -8.980215 8.826904
LeftShoulder -8.676569 0.023567 31.154720
LeftArm 184.892906 -76.412904 -132.972232
LeftForeArm -32.327901 -0.000000 -9.304756
LeftHand 16.168151 -0.000000 111.121162
LeftHandThumb1 -26.253704 0.000000 33.147579
RightShoulder -21.030370 45.064662 -55.286643
RightArm 29.412657 51.802186 -7.373351
RightForeArm 37.199286 -0.000000 -5.891660
RightHand 22.075389 -0.000000 -99.946398
RightHandThumb1 -24.326973 -0.000000 -32.862282
LeftUpLeg 18.911863 -12.302923 24.731885
LeftLeg 31.821588 -0.000000 -0.000000
LeftFoot 6.463373 -6.281222 -14.239898
LeftToeBase -41.294723 -0.000000 0.000000
RightUpLeg -86.323333 -51.061554 -18.071387
RightLeg 8.423676 -0.000000 -0.000000
RightFoot 41.910777 -17.528842 -2.881807
RightToeBase 30.096272 -0.000000 -0.000000
